<svg width="80" height="80" viewBox="0 0 80 80" xmlns="http://www.w3.org/2000/svg">
  <path d="M15 5 Q5 5 5 15 L5 25 Q5 30 10 30 L15 30 Q20 30 20 25 L20 20 Q20 15 25 15 L30 15 Q35 15 35 20 L35 25 Q35 30 40 30 L45 30 Q50 30 50 25 L50 20 Q50 15 55 15 L65 15 Q75 15 75 25 L75 65 Q75 75 65 75 L15 75 Q5 75 5 65 L5 55 Q5 50 10 50 L15 50 Q20 50 20 55 L20 60 Q20 65 25 65 L30 65 Q35 65 35 60 L35 55 Q35 50 40 50 L45 50 Q50 50 50 55 L50 60 Q50 65 55 65" fill="currentColor"/>
  <rect x="25" y="35" width="12" height="20" rx="1" fill="white"/>
  <rect x="43" y="35" width="12" height="20" rx="1" fill="white"/>
  <line x1="27" y1="38" x2="35" y2="38" stroke="currentColor" stroke-width="0.8"/>
  <line x1="27" y1="42" x2="33" y2="42" stroke="currentColor" stroke-width="0.8"/>
  <line x1="45" y1="38" x2="53" y2="38" stroke="currentColor" stroke-width="0.8"/>
  <line x1="45" y1="42" x2="51" y2="42" stroke="currentColor" stroke-width="0.8"/>
</svg>